<?xml version="1.0" standalone="no"?>
<!DOCTYPE svg PUBLIC "-//W3C//DTD SVG 20010904//EN"
 "http://www.w3.org/TR/2001/REC-SVG-20010904/DTD/svg10.dtd">
<svg version="1.0" xmlns="http://www.w3.org/2000/svg"
 width="1024.000000pt" height="1024.000000pt" viewBox="0 0 1024.000000 1024.000000"
 preserveAspectRatio="xMidYMid meet">
<metadata>
Created by potrace 1.11, written by Peter Selinger 2001-2013
</metadata>
<g transform="translate(0.000000,1024.000000) scale(0.100000,-0.100000)"
fill="#000000" stroke="none">
<path d="M4475 8994 c-295 -52 -641 -272 -789 -502 -218 -337 -242 -736 -68
-1097 l49 -100 -114 -23 c-158 -32 -269 -75 -294 -116 -21 -33 -19 -77 4 -105
10 -13 75 -365 92 -501 2 -14 21 -41 43 -60 l39 -35 7 -105 c14 -212 252
-3099 260 -3157 2 -18 23 -57 46 -88 34 -47 55 -63 114 -91 204 -96 602 -147
1156 -147 331 0 516 10 720 39 367 53 526 118 564 232 17 51 16 30 156 1822
97 1241 108 1403 99 1450 -6 28 -3 32 31 50 70 36 86 66 94 176 4 55 13 186
21 293 8 114 10 204 5 217 -25 64 -230 126 -555 168 -270 35 -625 57 -1142 68
l-93 2 0 96 c0 115 18 189 68 283 130 248 477 388 749 302 86 -27 108 -40 279
-170 151 -114 260 -180 325 -195 109 -26 227 11 317 98 53 52 100 134 80 141
-7 2 -17 -4 -23 -14 -5 -10 -32 -44 -58 -77 -91 -111 -228 -149 -358 -98 -30
12 -120 72 -206 138 -261 199 -308 224 -453 243 -199 27 -437 -65 -591 -228
-110 -117 -160 -247 -161 -419 l0 -102 -176 -6 c-98 -3 -276 -11 -397 -18
-323 -17 -286 -22 -312 42 -90 228 -62 503 72 705 115 173 259 277 493 359
154 53 255 70 392 63 221 -11 383 -72 576 -218 208 -157 394 -269 510 -309
128 -44 268 -34 392 29 101 51 200 145 188 177 -5 13 -17 6 -61 -35 -112 -106
-289 -165 -428 -142 -157 26 -361 145 -643 374 -70 57 -233 138 -324 162 -38
10 -122 19 -205 22 -115 4 -157 1 -236 -15 -264 -54 -543 -223 -675 -407 -153
-216 -194 -487 -108 -729 13 -39 27 -78 30 -87 4 -13 -14 -17 -118 -28 -68 -8
-128 -15 -134 -18 -17 -6 -102 185 -129 292 -46 182 -48 378 -5 550 29 114
115 284 197 385 114 142 233 228 418 304 176 73 283 96 434 96 164 -1 313 -35
443 -101 74 -38 211 -131 268 -184 140 -129 371 -293 491 -350 41 -19 111 -42
157 -51 77 -16 89 -16 165 -1 49 10 111 31 156 54 77 40 186 130 196 163 13
41 -8 38 -68 -11 -164 -132 -337 -178 -495 -133 -142 41 -321 155 -479 305
-105 99 -250 219 -265 219 -3 0 -35 17 -69 38 -186 113 -436 156 -664 116z
m444 -1706 c21 -70 73 -158 124 -212 l48 -51 -35 50 c-43 62 -116 212 -116
239 0 19 6 19 283 12 637 -15 1191 -77 1367 -154 260 -112 -236 -230 -1145
-272 -818 -37 -1841 39 -2076 156 -67 33 -77 49 -50 78 31 33 108 60 253 91
l121 26 78 -83 79 -83 -50 75 c-27 41 -50 80 -50 86 0 7 43 16 108 23 59 7
117 14 128 16 17 4 29 -7 59 -53 40 -60 142 -172 156 -172 5 0 -11 26 -34 58
-62 83 -111 162 -103 169 13 13 450 38 717 41 l126 2 12 -42z m1718 -476 c-8
-153 -8 -208 1 -222 22 -36 -77 -92 -239 -135 -443 -117 -1468 -160 -2184 -90
-383 37 -527 63 -720 131 l-100 35 -2 53 c-1 46 -41 313 -59 398 l-5 27 55
-19 c60 -20 268 -64 384 -80 271 -38 854 -71 1222 -71 686 1 1412 75 1620 164
19 9 36 14 37 14 1 -1 -3 -94 -10 -205z m-2952 -427 c637 -138 2024 -138 2660
0 60 13 123 28 138 34 37 14 39 14 33 -6 -10 -34 -36 -336 -111 -1288 -128
-1643 -145 -1867 -145 -1916 0 -76 -25 -113 -95 -145 -362 -164 -1417 -205
-2030 -78 -192 39 -287 77 -343 136 -25 27 -12 -103 -142 1463 -104 1264 -140
1682 -150 1759 -5 44 -10 83 -10 87 0 5 19 1 43 -7 23 -8 92 -26 152 -39z"/>
<path d="M4335 5105 c-44 -7 -108 -20 -142 -29 -171 -45 -447 -160 -492 -205
-37 -37 -37 -36 74 -971 80 -673 73 -627 99 -648 11 -9 31 -35 42 -57 70 -129
383 -218 874 -246 619 -36 1242 65 1358 220 15 20 32 41 39 46 12 10 20 92 89
825 76 819 85 960 65 998 -14 26 -74 31 -106 9 -30 -21 -284 -125 -398 -163
-164 -55 -277 -77 -412 -77 -171 -2 -240 24 -422 157 -111 80 -197 124 -282
142 -81 17 -277 17 -386 -1z m390 -51 c79 -21 122 -44 235 -124 173 -122 236
-153 362 -174 l73 -13 -55 -12 c-278 -61 -526 -84 -850 -78 -236 4 -278 8
-386 31 -143 30 -280 80 -294 107 -6 10 -8 29 -4 43 7 29 -3 37 -33 25 -29
-11 -31 -61 -4 -88 35 -35 169 -92 284 -121 177 -45 284 -53 601 -47 330 6
515 29 802 97 252 60 640 202 755 276 80 52 99 55 99 17 0 -16 -18 -203 -39
-418 -21 -214 -59 -610 -82 -879 l-44 -488 -78 -39 c-114 -58 -160 -74 -287
-102 -234 -52 -427 -70 -745 -70 -254 0 -314 4 -485 26 -287 39 -450 84 -547
153 -84 59 -114 144 -78 214 82 158 621 316 1100 322 108 1 133 4 110 11 -16
6 -127 10 -245 11 -196 0 -227 -3 -349 -28 -297 -61 -514 -147 -603 -238 -26
-27 -48 -45 -48 -39 0 46 -158 1334 -166 1355 -3 8 2 30 10 48 14 28 32 40
129 82 195 85 375 137 536 156 100 11 251 4 326 -16z"/>
<path d="M4583 4914 c-8 -22 9 -48 34 -52 29 -4 40 28 12 35 -12 3 -18 11 -15
19 3 8 -1 14 -10 14 -8 0 -17 -7 -21 -16z"/>
<path d="M4494 4885 c-8 -19 3 -35 26 -35 16 0 17 3 7 25 -14 28 -25 32 -33
10z"/>
<path d="M4302 4831 c2 -9 13 -17 26 -19 16 -3 22 2 22 16 0 14 -7 20 -25 20
-19 0 -25 -5 -23 -17z"/>
<path d="M4649 4829 c-10 -20 -9 -21 23 -14 39 9 42 11 33 24 -11 18 -44 12
-56 -10z"/>
<path d="M4430 4810 c0 -24 15 -27 24 -4 9 22 8 24 -9 24 -8 0 -15 -9 -15 -20z"/>
<path d="M4568 4789 c-10 -5 -18 -18 -18 -28 0 -15 8 -18 45 -17 34 1 45 5 45
17 0 34 -37 49 -72 28z"/>
<path d="M4812 4784 c-34 -24 -26 -34 28 -34 28 0 50 4 50 9 0 10 -39 41 -50
41 -3 0 -16 -7 -28 -16z"/>
<path d="M4460 4765 c0 -17 -31 -20 -47 -4 -14 14 -25 -3 -17 -24 8 -23 31
-28 48 -12 8 8 22 12 30 9 9 -3 23 -1 31 6 13 11 12 15 -11 26 -33 17 -34 17
-34 -1z"/>
<path d="M4677 4753 c-15 -14 -6 -33 16 -33 29 0 51 15 43 29 -8 12 -49 15
-59 4z"/>
<path d="M4786 4723 c-11 -11 -6 -23 9 -23 8 0 15 4 15 9 0 13 -16 22 -24 14z"/>
<path d="M5230 3780 c-15 -29 -3 -39 38 -33 27 4 32 9 30 27 -4 31 -53 35 -68
6z"/>
<path d="M5551 3746 c-10 -11 -6 -17 18 -29 26 -13 30 -13 36 0 6 18 -11 43
-30 43 -7 0 -18 -6 -24 -14z"/>
<path d="M5268 3695 c-13 -29 3 -55 34 -55 22 0 36 29 18 40 -8 5 -9 9 -1 14
19 12 12 26 -14 26 -17 0 -29 -8 -37 -25z"/>
<path d="M5427 3713 c-15 -14 -6 -23 23 -23 22 0 28 4 24 15 -6 15 -35 20 -47
8z"/>
<path d="M5736 3674 c-4 -10 -2 -22 3 -27 15 -15 46 -3 46 18 0 26 -40 33 -49
9z"/>
<path d="M5133 3665 c-10 -27 6 -30 30 -7 l21 22 -22 0 c-12 0 -25 -7 -29 -15z"/>
<path d="M5617 3653 c-4 -3 -7 -15 -7 -26 0 -11 3 -17 7 -14 3 4 12 2 20 -5
19 -16 37 4 28 31 -6 20 -34 28 -48 14z"/>
<path d="M5344 3635 c-14 -35 24 -68 51 -45 13 10 12 15 -3 36 -20 27 -40 31
-48 9z"/>
<path d="M5492 3638 c-18 -18 -15 -39 4 -31 9 3 20 0 25 -8 7 -11 11 -11 21
-1 9 9 10 17 2 30 -14 22 -36 26 -52 10z"/>
<path d="M5165 3610 c-3 -5 -3 -14 0 -20 10 -17 32 -11 38 10 4 15 0 20 -13
20 -11 0 -22 -4 -25 -10z"/>
<path d="M5812 3567 c182 -74 263 -143 275 -236 8 -58 -3 -89 -40 -111 -29
-18 -30 -20 -9 -20 61 0 97 55 89 136 -13 131 -115 217 -302 255 -131 27 -132
24 -13 -24z"/>
<path d="M5236 3555 c-18 -19 -11 -45 14 -45 12 0 18 8 18 25 0 32 -12 39 -32
20z"/>
<path d="M5621 3551 c-12 -8 -12 -12 -2 -25 20 -24 43 -20 39 6 -3 25 -17 32
-37 19z"/>
<path d="M5418 3505 c-15 -33 8 -61 41 -50 19 6 20 9 9 22 -7 9 -12 24 -10 35
5 28 -27 22 -40 -7z"/>
<path d="M5767 3523 c-4 -3 -7 -15 -7 -25 0 -15 5 -18 23 -13 30 10 41 21 33
34 -8 12 -39 15 -49 4z"/>
<path d="M5543 3473 c-7 -2 -13 -14 -13 -25 0 -14 5 -18 15 -15 8 4 17 2 20
-3 10 -16 25 -11 25 8 0 17 -18 43 -29 41 -4 0 -12 -3 -18 -6z"/>
<path d="M2599 3516 c-101 -27 -156 -104 -146 -202 6 -54 6 -54 -43 -103 -53
-53 -67 -94 -55 -158 9 -51 88 -127 147 -144 24 -6 49 -13 55 -15 9 -2 5 -17
-12 -50 -46 -86 -27 -169 53 -231 101 -77 265 -44 323 65 17 32 19 33 86 35
51 2 78 8 106 26 80 49 114 134 87 216 -11 34 -11 39 6 48 11 6 31 23 47 38
22 22 27 37 27 74 0 39 -5 52 -31 75 -16 16 -39 32 -49 35 -17 6 -19 13 -13
65 5 48 2 66 -16 103 -51 106 -203 144 -312 80 -27 -16 -29 -16 -66 10 -21 15
-63 31 -92 37 -30 5 -54 10 -55 9 0 0 -22 -6 -47 -13z m146 -35 c62 -28 68
-40 45 -86 -11 -22 -20 -47 -20 -56 0 -10 -15 -27 -34 -39 -29 -17 -52 -21
-141 -23 -103 -2 -106 -1 -112 21 -9 38 3 99 27 133 46 64 155 87 235 50z
m321 -20 c72 -33 112 -123 85 -193 -9 -25 -16 -28 -57 -28 -37 0 -51 5 -76 30
-46 47 -85 62 -156 63 -62 1 -63 1 -57 26 17 69 92 121 175 121 25 0 63 -9 86
-19z m-120 -170 c23 -10 48 -28 56 -40 14 -20 13 -24 -23 -60 -31 -31 -39 -46
-39 -75 l0 -36 -48 35 c-27 19 -53 45 -60 59 -6 13 -28 37 -49 52 -21 15 -42
31 -47 36 -15 12 76 48 124 48 25 0 64 -9 86 -19z m-213 -64 c24 -14 51 -37
60 -50 l16 -25 -48 -6 c-99 -13 -159 -87 -148 -182 l5 -44 -37 0 c-47 0 -132
40 -159 75 -74 94 -24 214 106 256 51 16 157 4 205 -24z m431 -8 c51 -14 96
-61 96 -101 0 -38 -13 -62 -50 -88 l-29 -21 -52 36 c-33 22 -64 36 -88 37 -20
1 -45 2 -56 2 -33 2 -31 48 4 88 45 52 103 67 175 47z m-296 -116 c36 -27 36
-35 -2 -60 -19 -12 -42 -40 -52 -63 -18 -39 -21 -41 -54 -36 -19 3 -52 1 -73
-3 -31 -8 -39 -6 -47 9 -15 29 -12 59 12 101 41 74 151 101 216 52z m222 -65
c76 -39 109 -124 76 -201 -27 -67 -120 -116 -193 -102 -27 5 -33 10 -33 32 0
43 -38 109 -80 138 -27 19 -37 32 -33 43 35 97 162 141 263 90z m-274 -137
c105 -48 125 -184 39 -260 -88 -77 -216 -59 -283 39 -19 28 -23 45 -20 86 8
92 79 154 178 154 25 0 63 -9 86 -19z"/>
<path d="M3415 3096 c-71 -32 -113 -115 -95 -190 11 -48 63 -103 111 -118 31
-9 38 -16 44 -45 9 -48 81 -118 137 -133 177 -48 331 103 259 253 -28 59 -82
95 -160 108 -42 8 -65 17 -68 28 -32 86 -144 134 -228 97z m133 -25 c34 -17
72 -65 72 -89 0 -6 -21 -20 -46 -32 -47 -23 -87 -73 -100 -123 -5 -22 -10 -26
-28 -21 -127 38 -143 207 -26 266 45 23 82 23 128 -1z m218 -140 c105 -48 125
-184 39 -260 -88 -77 -216 -59 -283 39 -19 28 -23 45 -20 86 8 92 79 154 178
154 25 0 63 -9 86 -19z"/>
</g>
</svg>
