<?xml version="1.0" standalone="no"?>
<!DOCTYPE svg PUBLIC "-//W3C//DTD SVG 20010904//EN"
 "http://www.w3.org/TR/2001/REC-SVG-20010904/DTD/svg10.dtd">
<svg version="1.0" xmlns="http://www.w3.org/2000/svg"
 width="326.000000pt" height="326.000000pt" viewBox="0 0 326.000000 326.000000"
 preserveAspectRatio="xMidYMid meet">
<metadata>
Created by potrace 1.11, written by Peter Selinger 2001-2013
</metadata>
<g transform="translate(0.000000,326.000000) scale(0.100000,-0.100000)"
fill="#000000" stroke="none">
<path d="M1625 2726 c-140 -26 -247 -64 -304 -109 -64 -49 -156 -177 -138
-190 7 -5 3 -6 -10 -2 -18 5 -40 -12 -121 -92 -81 -80 -107 -113 -140 -180
-22 -45 -46 -107 -53 -138 -7 -30 -16 -55 -20 -55 -4 0 -19 24 -34 53 -25 49
-26 50 -22 17 3 -19 13 -63 23 -97 16 -60 16 -65 -5 -150 -40 -158 -43 -167
-49 -157 -4 5 -19 17 -34 27 -16 10 -28 23 -28 30 0 8 4 7 10 -3 7 -11 10 -6
10 20 0 61 20 111 62 156 22 24 36 44 30 44 -16 0 -82 -81 -89 -110 -3 -14
-26 -47 -50 -74 -28 -31 -40 -53 -35 -60 5 -6 12 -35 16 -63 l7 -53 -30 0
c-36 0 -40 -6 -30 -45 l7 -30 1 34 c1 30 3 33 24 27 12 -4 37 -9 55 -13 27 -5
32 -10 32 -35 0 -28 -1 -29 -36 -22 -33 6 -35 5 -26 -12 5 -11 21 -49 35 -87
l25 -67 -25 -31 c-14 -16 -23 -32 -20 -35 4 -4 18 13 52 64 5 6 55 -22 55 -30
0 -5 -9 -4 -20 2 -18 10 -26 6 -55 -23 -19 -19 -36 -29 -38 -23 -2 6 -16 -8
-32 -32 -15 -23 -29 -41 -30 -40 -1 2 2 28 7 58 5 30 10 82 13 115 l4 60 -8
-55 c-4 -31 -12 -64 -18 -75 -5 -11 -10 -47 -12 -79 -1 -33 -10 -76 -20 -95
-46 -92 -103 -303 -115 -421 -5 -51 -4 -49 12 20 9 41 18 67 20 58 2 -10 4
-18 5 -18 1 0 25 -8 54 -19 34 -12 55 -15 61 -9 16 16 32 0 32 -30 0 -19 3
-23 9 -13 6 8 11 -7 16 -45 8 -68 14 -86 26 -79 11 7 28 -27 33 -63 2 -16 10
-39 18 -51 14 -19 16 -20 22 -5 5 13 9 14 21 4 8 -7 15 -19 15 -27 0 -8 5 -11
11 -7 8 4 9 0 4 -14 -3 -12 0 -36 8 -54 36 -82 37 -87 24 -95 -11 -7 -49 -104
-74 -186 -5 -17 3 -18 116 -16 66 1 121 5 121 9 0 3 -5 11 -11 17 -8 8 -5 14
11 23 22 12 23 11 17 -19 -4 -18 -2 -31 3 -31 6 0 10 9 10 19 0 23 45 112 53
105 3 -3 3 -32 0 -65 -6 -59 -6 -59 21 -59 l26 0 -15 36 c-21 51 -19 81 7 95
12 7 67 14 123 16 91 3 98 2 81 -12 -11 -8 -24 -15 -29 -15 -4 0 -6 -4 -3 -9
3 -5 -5 -29 -19 -53 -31 -53 -31 -58 -1 -58 19 0 28 10 46 53 13 28 33 67 45
85 l23 33 7 -38 c4 -21 12 -47 18 -58 6 -11 10 -32 8 -47 l-3 -28 175 0 174 0
6 158 c7 156 22 288 51 432 8 41 20 105 27 142 7 37 16 65 21 62 4 -3 5 1 2 9
-5 15 25 143 50 212 19 52 20 35 1 -34 -8 -30 -11 -59 -8 -64 3 -6 2 -8 -3 -4
-5 3 -10 -27 -11 -66 -3 -108 -14 -221 -23 -232 -12 -15 11 -41 43 -49 15 -3
27 -11 27 -18 0 -14 105 -118 119 -118 6 0 12 6 12 13 1 6 4 -1 8 -17 7 -36
27 -45 36 -17 7 22 25 29 25 11 0 -6 -11 -32 -24 -58 -13 -26 -30 -76 -37
-111 -12 -61 -13 -63 -40 -59 -27 4 -29 2 -29 -26 0 -17 5 -38 10 -46 7 -11
10 -6 10 20 1 35 1 35 17 12 18 -26 35 -29 27 -4 -5 14 -4 15 5 2 14 -19 14
-43 1 -35 -13 8 -13 -5 0 -25 9 -13 10 -13 10 0 1 12 3 12 14 -3 11 -14 19
-15 39 -8 32 12 45 37 54 98 5 36 8 42 14 28 7 -19 8 -19 8 -1 1 11 4 16 8 13
6 -7 33 45 33 63 0 12 -30 40 -42 40 -5 0 -7 -7 -4 -16 3 -8 2 -13 -3 -9 -5 3
-11 2 -14 -2 -2 -5 -2 -2 0 5 1 8 3 33 3 56 0 23 6 50 13 59 11 16 12 15 12
-7 0 -13 -4 -22 -8 -19 -5 3 -3 -4 4 -15 7 -12 21 -23 31 -25 18 -5 19 -3 33
67 2 10 -3 32 -11 48 -18 36 -10 53 16 31 10 -9 17 -20 14 -25 -3 -4 2 -5 10
-2 9 3 20 -3 28 -15 14 -23 58 -29 58 -8 1 6 7 -1 14 -18 7 -16 16 -93 20
-170 4 -77 11 -144 16 -149 6 -6 11 -24 11 -40 2 -28 3 -27 9 9 7 38 7 38 9
-17 l1 -58 174 0 c203 0 185 -14 187 145 1 84 3 93 10 55 4 -25 8 -80 8 -122
l1 -78 34 0 34 0 8 66 c7 69 0 280 -11 324 -4 16 0 13 11 -10 25 -52 124 -342
124 -362 0 -11 8 -18 20 -18 16 0 20 7 20 36 0 19 -4 43 -9 52 -5 9 -12 40
-15 67 -6 45 -3 41 24 -39 16 -49 30 -96 30 -103 0 -9 15 -13 48 -13 45 0 49
2 60 33 16 46 16 229 -1 270 -8 18 -12 38 -9 46 3 9 0 11 -8 6 -9 -5 -10 -2
-5 15 4 13 3 20 -2 17 -5 -4 -17 10 -26 29 -20 40 -21 48 -7 39 6 -3 7 1 4 9
-3 9 -10 14 -14 11 -4 -3 -11 2 -14 11 -4 9 -2 13 5 8 8 -4 7 0 0 15 -7 11
-15 21 -20 21 -4 0 -8 6 -8 13 0 6 -19 44 -43 82 -23 39 -44 73 -47 78 -2 4
-2 7 1 7 7 0 170 -219 186 -250 8 -15 15 -20 18 -12 6 18 -121 191 -224 307
-212 236 -279 327 -357 481 -53 105 -105 286 -78 269 14 -8 17 41 8 110 -4 34
-3 80 2 106 6 26 8 70 4 98 -5 47 -10 54 -53 86 -26 19 -52 35 -58 35 -10 0
-32 59 -32 83 0 5 -10 31 -22 59 -21 49 -22 50 -59 44 -33 -5 -39 -3 -61 27
-14 17 -27 38 -29 45 -3 8 -11 -2 -18 -22 -16 -39 -32 -46 -75 -34 -34 9 -46
23 -46 55 0 26 44 63 76 63 13 0 24 5 24 10 0 6 -18 10 -41 10 -22 0 -49 5
-60 10 -21 12 -27 60 -6 60 6 0 21 3 33 6 14 4 31 -3 51 -20 17 -14 33 -26 36
-26 3 0 4 19 1 43 -3 23 0 58 7 78 10 34 9 42 -17 90 -34 63 -133 143 -198
160 -23 6 -65 19 -95 30 -70 26 -248 34 -346 15z m202 -63 c84 -12 118 -22
140 -39 27 -22 28 -22 9 -43 l-18 -20 -44 30 c-69 47 -115 59 -233 59 -138 0
-225 -19 -296 -64 -30 -20 -57 -36 -59 -36 -2 0 -6 11 -8 23 -9 47 96 96 227
106 106 8 133 6 282 -16z m-177 -28 c0 -23 -37 -74 -56 -78 -13 -2 -24 0 -24
5 0 20 31 67 47 71 27 7 33 7 33 2z m157 -11 l22 -4 -21 -36 c-20 -34 -57 -45
-49 -13 11 44 9 50 -6 19 -13 -25 -24 -34 -36 -32 -15 3 -17 10 -13 35 l6 32
-15 -32 c-11 -25 -22 -33 -40 -33 -14 0 -25 2 -25 5 0 15 31 64 42 67 14 5 99
0 135 -8z m-235 -31 c-19 -41 -30 -53 -51 -53 -10 0 -12 8 -7 32 8 41 23 58
52 58 l24 0 -18 -37z m-66 -10 c-13 -39 -46 -58 -46 -28 0 12 -4 13 -18 6 -14
-7 -18 -6 -19 9 -2 23 22 44 42 36 8 -3 15 -1 15 4 0 6 9 10 19 10 19 0 19 -3
7 -37z m374 9 c14 -12 19 -23 14 -35 -5 -15 -9 -16 -15 -5 -7 10 -9 10 -9 1 0
-7 -5 -13 -11 -13 -6 0 -8 8 -5 18 5 15 5 15 -6 2 -7 -9 -21 -14 -30 -12 -16
3 -17 6 -3 33 18 33 34 36 65 11z m-570 -56 c0 -2 -7 -7 -16 -10 -8 -3 -12 -2
-9 4 6 10 25 14 25 6z m20 -20 c0 -2 -7 -7 -16 -10 -8 -3 -12 -2 -9 4 6 10 25
14 25 6z m810 -429 c19 0 55 3 80 6 42 4 47 2 91 -42 34 -33 49 -57 54 -83 7
-42 -11 -52 -36 -21 -22 26 -130 73 -168 73 -36 0 -119 -42 -183 -92 -41 -32
-40 -32 -54 44 -6 36 -5 38 35 54 24 9 48 29 58 45 16 26 21 28 53 22 19 -4
51 -7 70 -6z m-471 -225 c16 -31 47 -109 69 -172 22 -63 43 -122 47 -131 5
-13 17 -15 58 -11 29 2 56 8 62 13 12 11 7 83 -11 178 -7 41 -12 76 -11 78 7
6 40 -113 39 -139 0 -15 4 -31 10 -34 7 -5 9 -1 5 9 -3 10 -2 17 4 17 6 0 9 8
7 17 -2 10 11 30 29 46 29 26 36 28 63 19 28 -10 31 -9 45 18 31 59 86 69 136
24 15 -14 23 -14 55 -4 37 13 39 12 69 -22 16 -20 39 -37 50 -40 15 -3 10 -7
-20 -17 -76 -26 -147 -88 -221 -193 -30 -42 -54 -80 -54 -85 0 -6 -11 -23 -25
-39 -14 -16 -45 -69 -69 -119 l-44 -90 -7 39 c-5 22 -5 119 -1 217 4 106 3
180 -2 183 -12 7 -16 -392 -4 -425 7 -18 -3 -63 -38 -180 l-48 -157 -73 -69
c-124 -117 -158 -145 -167 -139 -16 10 -42 72 -42 100 0 19 5 26 19 26 11 0
23 5 26 10 4 7 -2 9 -17 5 -104 -24 -152 -23 -273 7 -149 37 -292 102 -327
149 -21 27 -27 50 -32 116 -5 60 -18 110 -47 183 -28 73 -39 116 -39 155 0 72
24 240 58 403 l28 134 12 -87 c20 -136 79 -273 143 -331 48 -43 56 -16 23 79
-12 37 -12 40 1 23 8 -11 15 -24 15 -29 0 -6 12 -25 26 -44 21 -27 29 -32 40
-22 11 9 14 9 14 -1 0 -8 3 -11 6 -7 3 3 -6 31 -20 63 -35 77 -33 92 5 24 43
-78 47 -81 123 -82 84 -2 94 7 67 60 -35 68 -24 71 16 5 22 -39 44 -63 57 -66
20 -3 20 -4 -4 -15 l-25 -11 23 0 23 -1 -19 -27 c-17 -25 -18 -30 -5 -42 13
-12 16 -12 24 0 5 8 9 17 9 20 0 8 40 49 48 49 4 0 6 -18 4 -39 -5 -53 14
-108 45 -128 49 -33 152 -8 175 42 12 27 28 33 29 13 0 -7 4 -4 9 8 22 55 -40
127 -120 140 -33 5 -36 9 -38 41 -2 20 -14 92 -28 162 -22 112 -32 156 -50
226 -7 26 27 -29 65 -103z m99 70 c3 -19 -1 -23 -15 -20 -10 2 -19 14 -21 26
-3 19 1 23 15 20 10 -2 19 -14 21 -26z m518 2 c50 -24 134 -107 134 -133 0
-20 -2 -21 -15 -11 -8 7 -13 16 -10 19 2 4 -1 8 -8 8 -7 0 -43 21 -80 46 -38
26 -79 47 -93 47 -23 0 -123 -44 -134 -59 -3 -4 -22 -17 -43 -30 -21 -13 -44
-36 -53 -52 -17 -33 -35 -31 -26 3 4 16 2 19 -8 13 -7 -5 -5 6 6 25 25 43 135
121 193 136 50 14 88 10 137 -12z m-1058 -62 c-4 -35 -41 -38 -46 -4 -6 40 4
55 28 42 15 -8 20 -19 18 -38z m42 18 c0 -11 -7 -20 -15 -20 -8 0 -15 9 -15
20 0 11 7 20 15 20 8 0 15 -9 15 -20z m57 -12 c-3 -8 -6 -5 -6 6 -1 11 2 17 5
13 3 -3 4 -12 1 -19z m1 -54 c7 4 9 -10 13 -76 1 -18 6 -36 11 -39 14 -9 19
-117 5 -126 -36 -22 -102 -3 -94 28 3 10 1 16 -4 13 -11 -6 -54 84 -50 105 1
7 -2 10 -8 6 -6 -3 -9 0 -5 8 3 8 -2 20 -11 27 -8 7 -15 20 -14 29 0 13 2 14
6 1 4 -8 15 -22 25 -31 16 -14 24 -15 51 -5 18 6 37 18 44 26 11 13 12 13 12
0 0 -8 -6 -24 -14 -34 -17 -23 -19 -36 -5 -36 5 0 13 12 16 27 7 25 8 26 16 8
7 -19 4 13 -8 70 -2 11 -1 14 2 7 3 -6 9 -10 12 -8z m61 -64 c0 -23 -1 -23 -9
-5 -5 11 -9 31 -9 45 0 23 1 23 9 5 5 -11 9 -31 9 -45z m31 8 c0 -15 4 -29 8
-32 5 -3 9 -26 10 -52 0 -30 -3 -42 -8 -34 -5 8 -6 18 -4 22 3 4 0 8 -6 8 -7
0 -8 6 0 19 14 28 12 38 -3 16 -10 -13 -16 -15 -21 -6 -4 6 -3 18 3 25 6 7 8
30 5 52 -4 29 -3 35 5 24 6 -8 11 -27 11 -42z m17 10 c-3 -7 -5 -2 -5 12 0 14
2 19 5 13 2 -7 2 -19 0 -25z m948 -88 c-3 -5 -12 -10 -18 -10 -7 0 -6 4 3 10
19 12 23 12 15 0z m-1297 -61 c-10 -6 -9 -9 3 -14 9 -3 16 -13 16 -21 0 -12
-5 -10 -18 7 -9 12 -14 29 -11 38 4 10 1 12 -8 6 -9 -5 -11 -4 -6 4 6 9 11 9
22 0 12 -10 12 -14 2 -20z m376 16 c-3 -8 1 -24 10 -37 11 -15 16 -18 16 -8 0
8 7 23 14 32 12 16 13 15 12 -11 -1 -16 -4 -27 -8 -24 -8 4 -12 -11 -9 -37 1
-8 -9 2 -23 22 -26 37 -34 78 -16 78 5 0 7 -7 4 -15z m29 -6 c-4 -13 -9 -17
-15 -11 -11 11 -3 32 12 32 4 0 6 -9 3 -21z m977 -21 c0 -9 -4 -20 -10 -23 -6
-4 -10 9 -10 32 0 28 3 34 10 23 5 -8 10 -23 10 -32z m-190 1 c-7 -11 -14 -18
-17 -15 -3 3 0 12 7 21 18 21 23 19 10 -6z m-891 -16 c9 -18 9 -23 -1 -23 -7
0 -14 12 -14 26 -2 28 -1 28 15 -3z m-256 2 c-3 -9 -8 -14 -10 -11 -3 3 -2 9
2 15 9 16 15 13 8 -4z m9 -39 c6 4 8 2 5 -3 -4 -6 0 -16 8 -23 8 -7 12 -16 9
-22 -3 -5 -12 -4 -20 3 -7 6 -12 15 -9 19 3 4 -2 11 -11 14 -9 3 -12 11 -8 18
6 9 9 9 12 0 2 -7 9 -9 14 -6z m266 -5 c12 0 22 -6 22 -11 0 -7 -26 -10 -65
-9 -60 2 -74 7 -60 21 5 5 21 4 103 -1z m-668 -82 c0 -38 -4 -58 -10 -54 -5 3
-10 33 -10 66 0 38 4 58 10 54 6 -3 10 -33 10 -66z m127 -21 c-3 -8 -6 -5 -6
6 -1 11 2 17 5 13 3 -3 4 -12 1 -19z m653 1 c-7 -11 -14 -18 -17 -15 -3 3 0
12 7 21 18 21 23 19 10 -6z m-798 -46 c18 -16 38 -35 44 -43 10 -12 15 -8 28
25 13 31 19 36 26 25 15 -23 12 -93 -6 -118 -18 -26 -26 -27 -69 -6 -24 11
-38 29 -54 66 -35 84 -26 98 31 51z m146 -29 c5 -74 -5 -114 -28 -114 -24 0
-23 -1 -7 41 7 19 13 55 12 82 -1 63 19 56 23 -9z m919 26 c9 -2 -5 -44 -20
-58 -37 -33 -147 -13 -147 28 0 23 36 36 55 20 8 -7 20 -10 27 -7 8 3 5 6 -7
7 l-20 1 20 9 c15 7 58 7 92 0z m-910 -165 c7 -22 -13 -33 -46 -26 -38 7 -52
27 -24 34 28 8 66 3 70 -8z m-33 -51 c12 -5 16 -20 15 -68 0 -33 -4 -70 -9
-81 l-9 -20 0 20 c-1 11 -8 38 -16 60 l-14 40 -1 -56 c0 -31 7 -77 14 -104 8
-26 10 -43 4 -37 -25 25 -52 242 -28 227 6 -3 10 1 10 9 0 17 9 20 34 10z m23
-176 c-3 -8 -6 -5 -6 6 -1 11 2 17 5 13 3 -3 4 -12 1 -19z m-36 -133 c0 -13 2
-15 6 -6 7 16 33 -52 33 -86 0 -66 91 -270 191 -430 l21 -33 -26 -11 c-14 -7
-23 -16 -20 -21 11 -18 -52 5 -69 26 -21 25 -108 196 -125 245 -7 19 -14 32
-17 29 -6 -6 43 -143 76 -210 12 -26 27 -44 32 -41 6 4 8 -1 4 -11 -4 -10 -3
-15 3 -11 5 3 14 -3 19 -14 14 -25 14 -41 1 -41 -6 0 -10 8 -8 17 2 10 -1 18
-7 18 -30 2 -56 18 -51 31 3 7 0 13 -6 11 -24 -5 -75 207 -98 403 -5 41 -12
95 -15 120 -5 31 -3 41 3 31 8 -11 12 -10 23 7 15 23 28 13 30 -23z m971 -172
l-31 -15 0 -117 c0 -64 -4 -132 -10 -150 -8 -25 -8 -37 0 -42 6 -3 -11 -21
-40 -39 -50 -32 -64 -53 -21 -30 21 11 21 11 6 -19 -17 -33 -55 -44 -189 -56
-38 -3 -128 -21 -200 -39 -73 -19 -133 -33 -135 -31 -2 2 10 11 27 21 16 10
28 21 26 25 -7 10 123 130 182 168 34 22 71 61 108 112 53 73 207 229 227 229
16 0 7 -24 -19 -54 -16 -17 -4 -9 25 17 29 27 57 45 63 41 7 -4 -2 -13 -19
-21z m-229 -60 c12 -30 13 -42 5 -40 -12 2 -38 60 -38 87 0 22 15 0 33 -47z
m1027 -47 c0 -71 -26 -226 -41 -241 -11 -11 -12 -15 6 85 8 47 15 115 15 153
0 38 4 67 10 67 6 0 10 -28 10 -64z m-1863 -58 c-3 -7 -5 -2 -5 12 0 14 2 19
5 13 2 -7 2 -19 0 -25z m764 -60 c-30 -41 -87 -88 -105 -88 -14 0 -56 65 -56
85 0 22 15 18 34 -7 11 -15 10 -9 -4 20 -11 23 -16 42 -11 42 5 0 11 -7 14
-15 5 -12 14 -12 59 4 39 13 59 15 75 8 l23 -10 -29 -39z m676 -10 c-3 -8 -6
-5 -6 6 -1 11 2 17 5 13 3 -3 4 -12 1 -19z m-69 -10 c15 -15 16 -48 1 -48 -6
0 -9 9 -6 20 3 13 0 20 -9 20 -8 0 -14 5 -14 10 0 14 13 13 28 -2z m167 -26
c-8 -9 -25 20 -18 31 3 5 10 2 15 -7 6 -10 7 -20 3 -24z m-105 1 c0 -10 -4
-14 -8 -8 -4 6 -11 13 -16 18 -5 4 -2 7 7 7 10 0 17 -8 17 -17z m-1102 -48
c-3 -3 -9 2 -12 12 -6 14 -5 15 5 6 7 -7 10 -15 7 -18z m1129 -67 c-3 -7 -5
-2 -5 12 0 14 2 19 5 13 2 -7 2 -19 0 -25z m-1327 -13 c0 -5 -5 -3 -10 5 -5 8
-10 20 -10 25 0 6 5 3 10 -5 5 -8 10 -19 10 -25z m107 -147 c-3 -8 -6 -5 -6 6
-1 11 2 17 5 13 3 -3 4 -12 1 -19z m-150 -80 c-3 -8 -6 -5 -6 6 -1 11 2 17 5
13 3 -3 4 -12 1 -19z m638 -17 c-6 -5 -25 10 -25 20 0 5 6 4 14 -3 8 -7 12
-15 11 -17z"/>
<path d="M1008 1633 c6 -2 18 -2 25 0 6 3 1 5 -13 5 -14 0 -19 -2 -12 -5z"/>
<path d="M1002 1444 c-17 -7 -36 -23 -43 -35 -7 -13 -18 -29 -25 -36 -10 -11
-10 -22 3 -58 20 -59 34 -57 26 3 -4 35 -1 51 10 60 12 11 16 8 22 -15 8 -34
32 -73 45 -73 5 0 7 7 4 15 -5 11 1 15 22 15 16 0 39 3 52 7 21 5 23 3 20 -23
-3 -27 -6 -29 -42 -28 -34 1 -38 0 -23 -11 11 -8 30 -10 50 -6 31 7 32 9 37
66 5 48 2 63 -12 77 -10 10 -24 18 -30 18 -9 0 -8 4 2 10 8 5 11 10 5 10 -5 1
-29 4 -52 9 -28 5 -51 4 -71 -5z m98 -84 c0 -5 -5 -10 -11 -10 -5 0 -7 5 -4
10 3 6 8 10 11 10 2 0 4 -4 4 -10z"/>
<path d="M1730 1286 c0 -8 5 -18 10 -21 6 -3 10 3 10 14 0 12 -4 21 -10 21 -5
0 -10 -6 -10 -14z"/>
<path d="M1656 1282 c6 -4 14 -16 19 -27 l8 -20 5 20 c2 11 9 23 16 27 6 4 -5
8 -24 8 -19 0 -30 -4 -24 -8z"/>
<path d="M1033 1239 c9 -5 17 -18 17 -27 1 -16 1 -16 11 1 13 23 29 22 29 -3
0 -11 5 -20 10 -20 6 0 10 9 10 19 0 19 -44 41 -79 41 -14 -1 -14 -2 2 -11z"/>
<path d="M1423 1063 c9 -2 25 -2 35 0 9 3 1 5 -18 5 -19 0 -27 -2 -17 -5z"/>
<path d="M1322 1044 c-44 -31 -13 -94 53 -109 l30 -7 -30 20 c-16 10 -39 29
-49 41 -19 21 -19 21 4 46 27 29 24 32 -8 9z"/>
<path d="M2280 1906 c0 -3 9 -10 20 -16 11 -6 20 -8 20 -6 0 3 -9 10 -20 16
-11 6 -20 8 -20 6z"/>
<path d="M2330 1873 c0 -5 13 -17 28 -27 l27 -19 -24 26 c-26 28 -31 32 -31
20z"/>
<path d="M1235 1710 c3 -5 8 -10 11 -10 2 0 4 5 4 10 0 6 -5 10 -11 10 -5 0
-7 -4 -4 -10z"/>
<path d="M1310 1699 c0 -5 5 -7 10 -4 6 3 10 8 10 11 0 2 -4 4 -10 4 -5 0 -10
-5 -10 -11z"/>
<path d="M836 1097 c3 -10 9 -15 12 -12 3 3 0 11 -7 18 -10 9 -11 8 -5 -6z"/>
<path d="M806 893 c-6 -14 -5 -15 5 -6 7 7 10 15 7 18 -3 3 -9 -2 -12 -12z"/>
<path d="M1625 568 l-70 -73 73 70 c67 64 77 75 69 75 -1 0 -34 -33 -72 -72z"/>
<path d="M1534 468 l-19 -23 23 19 c21 18 27 26 19 26 -2 0 -12 -10 -23 -22z"/>
<path d="M1445 380 c-3 -6 1 -7 9 -4 18 7 21 14 7 14 -6 0 -13 -4 -16 -10z"/>
<path d="M1394 348 l-19 -23 25 20 c14 11 27 21 29 22 2 2 0 3 -6 3 -5 0 -18
-10 -29 -22z"/>
<path d="M1310 279 l-55 -51 52 42 c47 37 70 60 61 60 -2 0 -28 -23 -58 -51z"/>
<path d="M1468 273 c6 -2 18 -2 25 0 6 3 1 5 -13 5 -14 0 -19 -2 -12 -5z"/>
<path d="M1380 255 c-47 -18 -27 -18 30 -1 25 8 36 15 25 15 -11 0 -36 -7 -55
-14z"/>
<path d="M2611 2674 c0 -11 3 -14 6 -6 3 7 2 16 -1 19 -3 4 -6 -2 -5 -13z"/>
<path d="M557 2616 c-4 -10 -5 -21 -2 -24 9 -9 17 6 13 25 -3 17 -4 17 -11 -1z"/>
<path d="M550 2569 c0 -5 5 -7 10 -4 6 3 10 8 10 11 0 2 -4 4 -10 4 -5 0 -10
-5 -10 -11z"/>
<path d="M2700 2530 c-30 -16 -50 -29 -44 -30 12 0 104 49 104 56 0 6 1 6 -60
-26z"/>
<path d="M550 2541 c0 -5 5 -13 10 -16 6 -3 10 -2 10 4 0 5 -4 13 -10 16 -5 3
-10 2 -10 -4z"/>
<path d="M442 2510 c0 -14 2 -19 5 -12 2 6 2 18 0 25 -3 6 -5 1 -5 -13z"/>
<path d="M2462 2490 c3 -8 -1 -32 -10 -53 -8 -21 -12 -40 -9 -43 3 -3 13 16
22 41 15 37 16 48 5 58 -10 9 -11 9 -8 -3z"/>
<path d="M2510 2446 c0 -14 4 -27 8 -30 5 -3 6 8 4 25 -5 35 -12 38 -12 5z"/>
<path d="M2526 2387 c3 -10 9 -15 12 -12 3 3 0 11 -7 18 -10 9 -11 8 -5 -6z"/>
<path d="M2346 2323 c-9 -22 -4 -24 17 -8 14 10 15 14 3 18 -8 3 -17 -1 -20
-10z"/>
<path d="M951 2272 c0 -13 -13 -34 -27 -48 -14 -15 -20 -24 -13 -22 22 7 51
55 46 74 -4 16 -5 15 -6 -4z"/>
<path d="M2690 2276 c0 -2 9 -6 20 -9 11 -3 18 -1 14 4 -5 9 -34 13 -34 5z"/>
<path d="M2370 2231 c0 -17 34 -28 60 -20 25 7 25 7 2 8 -13 1 -32 6 -43 11
-12 7 -19 7 -19 1z"/>
<path d="M2470 2196 c0 -8 4 -17 9 -20 5 -4 7 3 4 14 -6 23 -13 26 -13 6z"/>
<path d="M2428 2163 c5 -21 7 -23 10 -9 2 10 0 22 -6 28 -6 6 -7 0 -4 -19z"/>
<path d="M741 2053 c6 -7 15 -13 20 -13 5 0 6 6 3 13 -3 8 -11 14 -19 14 -11
0 -12 -4 -4 -14z"/>
<path d="M1882 781 c-8 -5 -12 -17 -10 -27 2 -15 5 -13 15 9 14 30 14 30 -5
18z"/>
<path d="M437 563 c-2 -4 -23 -69 -47 -143 -23 -74 -65 -195 -91 -268 -27 -74
-49 -138 -49 -143 0 -5 31 -9 69 -9 l69 0 11 68 c23 137 32 220 41 357 8 134
8 156 -3 138z m-40 -277 c-3 -52 -10 -103 -16 -113 -11 -17 -9 28 4 151 1 12
3 29 4 39 0 9 4 17 7 17 4 0 4 -42 1 -94z"/>
</g>
</svg>
